<svg width="16" height="14" viewBox="0 0 16 14" fill="none" xmlns="http://www.w3.org/2000/svg">
<path fill-rule="evenodd" clip-rule="evenodd" d="M15.3665 3.57325C15.2975 3.47356 15.2054 3.39207 15.098 3.33577C14.9907 3.27947 14.8712 3.25004 14.75 3.25H4.49975L3.63425 1.1725C3.52077 0.89892 3.3286 0.665195 3.08212 0.500961C2.83564 0.336728 2.54594 0.249384 2.24975 0.250003H0.5V1.75H2.24975L5.80775 10.2888C5.86474 10.4254 5.96088 10.5421 6.08407 10.6241C6.20725 10.7062 6.35197 10.75 6.5 10.75H12.5C12.8127 10.75 13.0925 10.5558 13.2028 10.264L15.4528 4.264C15.4953 4.15047 15.5096 4.02832 15.4946 3.90802C15.4796 3.78771 15.4356 3.67285 15.3665 3.57325ZM6.875 13.75C7.49632 13.75 8 13.2463 8 12.625C8 12.0037 7.49632 11.5 6.875 11.5C6.25368 11.5 5.75 12.0037 5.75 12.625C5.75 13.2463 6.25368 13.75 6.875 13.75ZM13.25 12.625C13.25 13.2463 12.7463 13.75 12.125 13.75C11.5037 13.75 11 13.2463 11 12.625C11 12.0037 11.5037 11.5 12.125 11.5C12.7463 11.5 13.25 12.0037 13.25 12.625Z" fill="black"/>
</svg>
